<svg width="18" height="18" viewBox="0 0 18 18" fill="none" xmlns="http://www.w3.org/2000/svg">
<g id="icon/wf/budget">
<path id="Vector" d="M7.4925 13.485C10.8021 13.485 13.485 10.8021 13.485 7.4925C13.485 4.18293 10.8021 1.5 7.4925 1.5C4.18293 1.5 1.5 4.18293 1.5 7.4925C1.5 10.8021 4.18293 13.485 7.4925 13.485Z" stroke="#616161" stroke-width="1.125" stroke-linecap="round" stroke-linejoin="round"/>
<path id="&#194;&#163;" d="M5.75311 10.319V9.72356C5.95954 9.51713 6.11833 9.30541 6.22949 9.08839C6.34064 8.86608 6.39622 8.58025 6.39622 8.23091C6.39622 8.14093 6.38828 8.0483 6.3724 7.95302H5.46729V7.25434H6.15009C6.10246 7.11672 6.06011 6.9738 6.02306 6.8256C5.9913 6.67739 5.97542 6.52124 5.97542 6.35716C5.97542 6.00781 6.04952 5.70611 6.19773 5.45204C6.35123 5.19797 6.56295 5.00477 6.8329 4.87245C7.10814 4.73483 7.42308 4.66602 7.77772 4.66602C8.17999 4.66602 8.51346 4.74277 8.77811 4.89626C9.04277 5.04976 9.2439 5.25619 9.38152 5.51556C9.51914 5.77492 9.59589 6.06339 9.61177 6.38098H8.6749C8.66431 6.1322 8.58491 5.92577 8.43671 5.76169C8.2885 5.59231 8.07413 5.50762 7.7936 5.50762C7.5607 5.50762 7.35956 5.57907 7.19019 5.72199C7.02081 5.8649 6.93612 6.08721 6.93612 6.38892C6.93612 6.52654 6.95729 6.66945 6.99963 6.81766C7.04198 6.96057 7.08962 7.10613 7.14255 7.25434H8.62726V7.95302H7.3331C7.34898 8.0483 7.35692 8.14093 7.35692 8.23091C7.35692 8.44793 7.31457 8.66759 7.22988 8.8899C7.14519 9.11221 7.00493 9.31864 6.80908 9.50919H9.63559V10.319H5.75311Z" fill="#616161" stroke="#616161" stroke-width="0.225"/>
<path id="Vector_2" d="M9.73486 14.91C10.4099 15.8625 11.5124 16.485 12.7724 16.485C14.8199 16.485 16.4849 14.82 16.4849 12.7725C16.4849 11.5275 15.8699 10.425 14.9324 9.75" stroke="#616161" stroke-width="1.125" stroke-linecap="round" stroke-linejoin="round"/>
</g>
</svg>
