<svg width="22" height="23" viewBox="0 0 22 23" fill="none" xmlns="http://www.w3.org/2000/svg">
<path d="M10 9C12.2091 9 14 7.20914 14 5C14 2.79086 12.2091 1 10 1C7.79086 1 6 2.79086 6 5C6 7.20914 7.79086 9 10 9Z" stroke="#009C7B" stroke-width="1.2" stroke-linecap="round" stroke-linejoin="round"/>
<path d="M1.41016 20C1.41016 16.13 5.26015 13 10.0002 13" stroke="#009C7B" stroke-width="1.5" stroke-linecap="round" stroke-linejoin="round"/>
<path d="M21 16.5C21 16.94 20.945 17.3662 20.835 17.7787C20.7113 18.3287 20.4913 18.865 20.2025 19.3325C19.2538 20.9275 17.5075 22 15.5 22C14.0838 22 12.805 21.4637 11.8425 20.5837C11.43 20.2262 11.0725 19.8 10.7975 19.3325C10.2887 18.5075 10 17.5312 10 16.5C10 15.015 10.5913 13.6538 11.5538 12.6638C12.5575 11.6325 13.96 11 15.5 11C17.1225 11 18.5938 11.7013 19.5838 12.8288C20.4638 13.805 21 15.0975 21 16.5Z" stroke="#009C7B" stroke-width="1.5" stroke-miterlimit="10" stroke-linecap="round" stroke-linejoin="round"/>
<path d="M17.5 16H13.5" stroke="#009C7B" stroke-miterlimit="10" stroke-linecap="round" stroke-linejoin="round"/>
<path d="M15.5 14V18" stroke="#009C7B" stroke-miterlimit="10" stroke-linecap="round" stroke-linejoin="round"/>
</svg>
