<svg width="24" height="26" viewBox="0 0 24 26" fill="none" xmlns="http://www.w3.org/2000/svg">
<path d="M12 8V13" stroke="#F48B80" stroke-width="1.5" stroke-linecap="round" stroke-linejoin="round"/>
<path d="M12 22C7.17 22 3.25 18.08 3.25 13.25C3.25 8.42 7.17 4.5 12 4.5C16.83 4.5 20.75 8.42 20.75 13.25" stroke="#F48B80" stroke-width="1.5" stroke-linecap="round" stroke-linejoin="round"/>
<path d="M9 2H15" stroke="#F48B80" stroke-width="1.5" stroke-miterlimit="10" stroke-linecap="round" stroke-linejoin="round"/>
<mask id="path-4-outside-1_643_59391" maskUnits="userSpaceOnUse" x="13.5996" y="12" width="9" height="8" fill="black">
<rect fill="white" x="13.5996" y="12" width="9" height="8"/>
<path d="M15.5996 17.2V16.4C15.5996 15.072 15.9996 14 17.9996 14C19.9996 14 20.3996 15.072 20.3996 16.4V17.2"/>
</mask>
<path d="M13.5996 17.2C13.5996 18.3046 14.495 19.2 15.5996 19.2C16.7042 19.2 17.5996 18.3046 17.5996 17.2H13.5996ZM18.3996 17.2C18.3996 18.3046 19.295 19.2 20.3996 19.2C21.5042 19.2 22.3996 18.3046 22.3996 17.2H18.3996ZM17.5996 17.2V16.4H13.5996V17.2H17.5996ZM17.5996 16.4C17.5996 16.1575 17.6191 16.0112 17.6384 15.9303C17.6559 15.8574 17.6607 15.8902 17.6064 15.9575C17.5428 16.0364 17.4798 16.0622 17.4919 16.0576C17.5238 16.0455 17.6691 16 17.9996 16V12C16.6597 12 15.3623 12.3683 14.4928 13.4465C13.6984 14.4316 13.5996 15.6175 13.5996 16.4H17.5996ZM17.9996 16C18.3301 16 18.4755 16.0455 18.5073 16.0576C18.5194 16.0622 18.4564 16.0364 18.3928 15.9575C18.3385 15.8902 18.3433 15.8574 18.3608 15.9303C18.3802 16.0112 18.3996 16.1575 18.3996 16.4H22.3996C22.3996 15.6175 22.3008 14.4316 21.5064 13.4465C20.6369 12.3683 19.3396 12 17.9996 12V16ZM18.3996 16.4V17.2H22.3996V16.4H18.3996Z" fill="#F4F7FE" mask="url(#path-4-outside-1_643_59391)"/>
<path d="M15.5996 17.2V16.4C15.5996 15.072 15.9996 14 17.9996 14C19.9996 14 20.3996 15.072 20.3996 16.4V17.2" stroke="#F48B80" stroke-width="1.2" stroke-linecap="round" stroke-linejoin="round"/>
<path d="M17.9 20.8C18.3971 20.8 18.8 20.3971 18.8 19.9C18.8 19.4029 18.3971 19 17.9 19C17.4029 19 17 19.4029 17 19.9C17 20.3971 17.4029 20.8 17.9 20.8Z" stroke="#F48B80" stroke-width="0.8" stroke-linecap="round" stroke-linejoin="round"/>
<path d="M15 24.6H19C19.4897 24.6 19.9245 24.4919 20.2944 24.2718C20.6642 24.0516 20.9342 23.7402 21.1267 23.3873C21.5004 22.7023 21.6 21.8283 21.6 21V20.2C21.6 19.4042 21.5151 18.6665 21.0243 18.1757C20.5335 17.6849 19.7957 17.6 19 17.6H15C14.2043 17.6 13.4665 17.6849 12.9757 18.1757C12.4849 18.6665 12.4 19.4042 12.4 20.2V21C12.4 21.8283 12.4996 22.7023 12.8733 23.3873C13.0658 23.7402 13.3358 24.0516 13.7056 24.2718C14.0755 24.4919 14.5103 24.6 15 24.6Z" stroke="#F4F7FE" stroke-width="1.2" stroke-linecap="round" stroke-linejoin="round"/>
<path d="M20 23H16C14.4 23 14 21.6 14 20V19.2C14 17.6 14.4 17.2 16 17.2H20C21.6 17.2 22 17.6 22 19.2V20C22 21.6 21.6 23 20 23Z" stroke="#F48B80" stroke-width="1.2" stroke-linecap="round" stroke-linejoin="round"/>
</svg>
