<svg width="18" height="18" viewBox="0 0 18 18" fill="none" xmlns="http://www.w3.org/2000/svg">
<g id="nav/wf/Service Plan History">
<g id="Group 1642">
<g id="Group 1643">
<path id="Vector" d="M15 5.4375V9.285C14.3325 8.7525 13.485 8.4375 12.5625 8.4375C11.64 8.4375 10.7775 8.75998 10.1025 9.30748C9.195 10.02 8.625 11.1375 8.625 12.375C8.625 13.11 8.83501 13.815 9.19501 14.4C9.47251 14.8575 9.83249 15.255 10.26 15.5625H5.25C2.625 15.5625 1.5 14.0625 1.5 11.8125V5.4375C1.5 3.1875 2.625 1.6875 5.25 1.6875H11.25C13.875 1.6875 15 3.1875 15 5.4375Z" stroke="#616161" stroke-width="1.125" stroke-miterlimit="10" stroke-linecap="round" stroke-linejoin="round"/>
<path id="Vector_2" d="M4.5 7.3125H9" stroke="#616161" stroke-width="1.125" stroke-miterlimit="10" stroke-linecap="round" stroke-linejoin="round"/>
<path id="Vector_3" d="M4.5 11.0625H6.465" stroke="#616161" stroke-width="1.125" stroke-miterlimit="10" stroke-linecap="round" stroke-linejoin="round"/>
<path id="Vector_4" d="M16.5 12.375C16.5 13.11 16.29 13.815 15.93 14.4C15.72 14.76 15.4575 15.075 15.15 15.33C14.46 15.945 13.56 16.3125 12.5625 16.3125C11.7 16.3125 10.905 16.035 10.26 15.5625C9.83249 15.255 9.47251 14.8575 9.19501 14.4C8.83501 13.815 8.625 13.11 8.625 12.375C8.625 11.1375 9.195 10.02 10.1025 9.30748C10.7775 8.75998 11.64 8.4375 12.5625 8.4375C13.485 8.4375 14.3325 8.7525 15 9.285C15.915 10.005 16.5 11.1225 16.5 12.375Z" stroke="#616161" stroke-width="1.125" stroke-miterlimit="10" stroke-linecap="round" stroke-linejoin="round"/>
<path id="Vector_5" d="M12.5625 14.25C12.5625 13.215 13.4025 12.375 14.4375 12.375C13.4025 12.375 12.5625 11.535 12.5625 10.5C12.5625 11.535 11.7225 12.375 10.6875 12.375C11.7225 12.375 12.5625 13.215 12.5625 14.25Z" stroke="#616161" stroke-width="1.125" stroke-linecap="round" stroke-linejoin="round"/>
</g>
</g>
</g>
</svg>
