<svg width="20" height="18" viewBox="0 0 20 18" fill="none" xmlns="http://www.w3.org/2000/svg">
<path d="M7.7606 11.3667C7.1856 10.7927 6.8356 10.0127 6.8356 9.13768C6.8356 7.38468 8.2476 5.97168 9.9996 5.97168C10.8666 5.97168 11.6646 6.32268 12.2296 6.89668" stroke="#8F9BBA" stroke-width="1.8" stroke-linecap="round" stroke-linejoin="round"/>
<path d="M13.1048 9.69873C12.8728 10.9887 11.8568 12.0067 10.5678 12.2407" stroke="#8F9BBA" stroke-width="1.8" stroke-linecap="round" stroke-linejoin="round"/>
<path d="M4.6546 14.4722C3.0676 13.2262 1.7236 11.4062 0.749603 9.13723C1.7336 6.85823 3.0866 5.02823 4.6836 3.77223C6.2706 2.51623 8.1016 1.83423 9.9996 1.83423C11.9086 1.83423 13.7386 2.52623 15.3356 3.79123" stroke="#8F9BBA" stroke-width="1.5" stroke-linecap="round" stroke-linejoin="round"/>
<path d="M17.4476 5.99072C18.1356 6.90472 18.7406 7.95972 19.2496 9.13672C17.2826 13.6937 13.8066 16.4387 9.99961 16.4387C9.13661 16.4387 8.28561 16.2987 7.46761 16.0257" stroke="#8F9BBA" stroke-width="1.5" stroke-linecap="round" stroke-linejoin="round"/>
<path d="M17.887 1.24951L2.11301 17.0235" stroke="#8F9BBA" stroke-width="1.5" stroke-linecap="round" stroke-linejoin="round"/>
</svg>
