<svg width="23" height="24" viewBox="0 0 23 24" fill="none" xmlns="http://www.w3.org/2000/svg">
<path d="M17.0869 13.4336C16.6984 13.8128 16.4764 14.3586 16.5319 14.9413C16.6152 15.9403 17.5309 16.6711 18.5299 16.6711H20.2874V17.7718C20.2874 19.6866 18.7242 21.2499 16.8094 21.2499H7.45766C7.74441 21.0094 7.99415 20.7134 8.1884 20.3804C8.53065 19.8254 8.7249 19.1686 8.7249 18.4749C8.7249 16.4306 7.06915 14.7749 5.0249 14.7749C4.1554 14.7749 3.35065 15.0801 2.7124 15.5889V11.5466C2.7124 9.63186 4.27565 8.0686 6.1904 8.0686H16.8094C18.7242 8.0686 20.2874 9.63186 20.2874 11.5466V12.8786H18.4189C17.9009 12.8786 17.4291 13.0821 17.0869 13.4336Z" stroke="#616161" stroke-width="1.3875" stroke-linecap="round" stroke-linejoin="round"/>
<path d="M2.7124 12.3791V8.15186C2.7124 7.05111 3.38765 6.07057 4.4144 5.68207L11.7589 2.90707C12.9059 2.47232 14.1362 3.32334 14.1362 4.55359V8.06858" stroke="#616161" stroke-width="1.3875" stroke-linecap="round" stroke-linejoin="round"/>
<path d="M21.2668 13.8224V15.7279C21.2668 16.2367 20.8598 16.6529 20.3418 16.6714H18.5288C17.5298 16.6714 16.614 15.9406 16.5308 14.9416C16.4753 14.3589 16.6973 13.8131 17.0858 13.4339C17.428 13.0824 17.8998 12.8789 18.4178 12.8789H20.3418C20.8598 12.8974 21.2668 13.3136 21.2668 13.8224Z" stroke="#616161" stroke-width="1.3875" stroke-linecap="round" stroke-linejoin="round"/>
<path d="M6.87488 12H13.3499" stroke="#616161" stroke-width="1.3875" stroke-linecap="round" stroke-linejoin="round"/>
<path d="M8.72495 18.4749C8.72495 19.1687 8.5307 19.8254 8.18845 20.3804C7.9942 20.7134 7.74446 21.0094 7.45771 21.2499C6.81021 21.8327 5.9592 22.1749 5.02495 22.1749C3.67445 22.1749 2.4997 21.4534 1.86145 20.3804C1.5192 19.8254 1.32495 19.1687 1.32495 18.4749C1.32495 17.3094 1.86145 16.2642 2.71245 15.5889C3.3507 15.0802 4.15545 14.7749 5.02495 14.7749C7.0692 14.7749 8.72495 16.4307 8.72495 18.4749Z" stroke="#616161" stroke-width="1.3875" stroke-miterlimit="10" stroke-linecap="round" stroke-linejoin="round"/>
<path d="M3.58325 18.4744L4.499 19.3901L6.46925 17.5679" stroke="#616161" stroke-width="1.3875" stroke-linecap="round" stroke-linejoin="round"/>
</svg>
