<svg width="28" height="28" viewBox="0 0 28 28" fill="none" xmlns="http://www.w3.org/2000/svg">
<path d="M9.33325 1.16675V5.83341" stroke="#212112" stroke-width="1.75" stroke-miterlimit="10" stroke-linecap="round" stroke-linejoin="round"/>
<path d="M18.6667 1.16675V5.83341" stroke="#212112" stroke-width="1.75" stroke-miterlimit="10" stroke-linecap="round" stroke-linejoin="round"/>
<path d="M24.5 9.91659V15.9016C23.4617 15.0733 22.1433 14.5833 20.7083 14.5833C19.2733 14.5833 17.9317 15.0849 16.8817 15.9366C15.47 17.0449 14.5833 18.7833 14.5833 20.7083C14.5833 21.8516 14.91 22.9483 15.47 23.8583C15.9017 24.5699 16.4617 25.1883 17.1267 25.6666H9.33333C5.25 25.6666 3.5 23.3333 3.5 19.8333V9.91659C3.5 6.41659 5.25 4.08325 9.33333 4.08325H18.6667C22.75 4.08325 24.5 6.41659 24.5 9.91659Z" stroke="#212112" stroke-width="1.75" stroke-miterlimit="10" stroke-linecap="round" stroke-linejoin="round"/>
<path d="M8.16675 12.8333H15.1667" stroke="#212112" stroke-width="1.75" stroke-miterlimit="10" stroke-linecap="round" stroke-linejoin="round"/>
<path d="M8.16675 18.6667H11.2234" stroke="#212112" stroke-width="1.75" stroke-miterlimit="10" stroke-linecap="round" stroke-linejoin="round"/>
<path d="M26.8333 20.7083C26.8333 21.8516 26.5066 22.9483 25.9466 23.8583C25.6199 24.4183 25.2116 24.9083 24.7333 25.3049C23.6599 26.2616 22.2599 26.8333 20.7083 26.8333C19.3666 26.8333 18.1299 26.4016 17.1266 25.6666C16.4616 25.1883 15.9016 24.5699 15.4699 23.8583C14.9099 22.9483 14.5833 21.8516 14.5833 20.7083C14.5833 18.7833 15.4699 17.0449 16.8816 15.9366C17.9316 15.0849 19.2733 14.5833 20.7083 14.5833C22.1433 14.5833 23.4616 15.0733 24.4999 15.9016C25.9233 17.0216 26.8333 18.7599 26.8333 20.7083Z" fill="#212112" stroke="#212112" stroke-width="1.75" stroke-miterlimit="10" stroke-linecap="round" stroke-linejoin="round"/>
<path d="M20.9999 18.6667V20.7979C20.9999 21.1608 20.8319 21.503 20.5426 21.6897H18.2778" stroke="white" stroke-width="1.75" stroke-miterlimit="10" stroke-linecap="round" stroke-linejoin="round"/>
</svg>
