<svg width="23" height="24" viewBox="0 0 23 24" fill="none" xmlns="http://www.w3.org/2000/svg">
<path d="M2.7124 13.1468V11.5466C2.7124 9.63186 4.27565 8.0686 6.1904 8.0686H16.8094C18.7242 8.0686 20.2874 9.63186 20.2874 11.5466V12.8786H18.4189C17.9009 12.8786 17.4291 13.0821 17.0869 13.4336C16.6984 13.8128 16.4764 14.3586 16.5319 14.9413C16.6152 15.9403 17.5309 16.6711 18.5299 16.6711H20.2874V17.7718C20.2874 19.6866 18.7242 21.2499 16.8094 21.2499H11.7404" stroke="#616161" stroke-width="1.3875" stroke-linecap="round" stroke-linejoin="round"/>
<path d="M2.7124 12.3791V8.15186C2.7124 7.05111 3.38765 6.07057 4.4144 5.68207L11.7589 2.90707C12.9059 2.47232 14.1362 3.32334 14.1362 4.55359V8.06858" stroke="#616161" stroke-width="1.3875" stroke-linecap="round" stroke-linejoin="round"/>
<path d="M21.2669 13.8224V15.7279C21.2669 16.2367 20.8599 16.6529 20.3419 16.6714H18.5289C17.5299 16.6714 16.6142 15.9406 16.5309 14.9416C16.4754 14.3589 16.6974 13.8131 17.0859 13.4339C17.4281 13.0824 17.8999 12.8789 18.4179 12.8789H20.3419C20.8599 12.8974 21.2669 13.3136 21.2669 13.8224Z" stroke="#616161" stroke-width="1.3875" stroke-linecap="round" stroke-linejoin="round"/>
<path d="M6.875 12H13.35" stroke="#616161" stroke-width="1.3875" stroke-linecap="round" stroke-linejoin="round"/>
<path d="M3.1748 16.1619H8.1143C8.7063 16.1619 9.18731 16.6428 9.18731 17.2348V18.4189" stroke="#616161" stroke-width="1.3875" stroke-miterlimit="10" stroke-linecap="round" stroke-linejoin="round"/>
<path d="M4.30331 15.0337L3.1748 16.1622L4.30331 17.2906" stroke="#616161" stroke-width="1.3875" stroke-miterlimit="10" stroke-linecap="round" stroke-linejoin="round"/>
<path d="M9.18731 21.0463H4.24781C3.65581 21.0463 3.1748 20.5653 3.1748 19.9733V18.7893" stroke="#616161" stroke-width="1.3875" stroke-miterlimit="10" stroke-linecap="round" stroke-linejoin="round"/>
<path d="M8.06006 22.175L9.18856 21.0465L8.06006 19.918" stroke="#616161" stroke-width="1.3875" stroke-miterlimit="10" stroke-linecap="round" stroke-linejoin="round"/>
</svg>
